<?xml version="1.0" encoding="UTF-8" standalone="no"?><!DOCTYPE svg PUBLIC "-//W3C//DTD SVG 1.1//EN" "http://www.w3.org/Graphics/SVG/1.1/DTD/svg11.dtd"><svg width="100%" height="100%" viewBox="0 0 3334 834" version="1.1" xmlns="http://www.w3.org/2000/svg" xmlns:xlink="http://www.w3.org/1999/xlink" xml:space="preserve" xmlns:serif="http://www.serif.com/" style="fill-rule:evenodd;clip-rule:evenodd;stroke-linecap:round;stroke-linejoin:round;stroke-miterlimit:1.5;"><rect x="0" y="0" width="3333.33" height="833.333" style="fill:none;"/><g><path d="M1090.58,558.117c-18.133,-0 -27.2,-9.067 -27.2,-27.2l0,-227.6c0,-18.134 9.067,-27.2 27.2,-27.2l142.8,-0c13.867,-0 20.8,6.666 20.8,20c0,13.866 -6.933,20.8 -20.8,20.8l-120.8,-0l0,77.6l112,-0c13.867,-0 20.8,6.8 20.8,20.4c0,13.6 -6.933,20.4 -20.8,20.4l-112,-0l0,82l120.8,-0c13.867,-0 20.8,6.8 20.8,20.4c0,13.6 -6.933,20.4 -20.8,20.4l-142.8,-0Z" style="fill:#f9fafb;fill-rule:nonzero;"/><path d="M1364.18,562.117c-44.533,-0 -66.8,-24.934 -66.8,-74.8l0,-189.2c0,-16.8 8.267,-25.2 24.8,-25.2c16.8,-0 25.2,8.4 25.2,25.2l0,186.8c0,24 10,36 30,36c2.134,-0 4.134,-0.067 6,-0.2c1.867,-0.134 3.734,-0.334 5.6,-0.6c3.734,-0.534 6.267,0.466 7.6,3c1.334,2.533 2,7.666 2,15.4c0,6.666 -1.333,11.866 -4,15.6c-2.666,3.733 -7.066,6 -13.2,6.8c-5.6,0.8 -11.333,1.2 -17.2,1.2Z" style="fill:#f9fafb;fill-rule:nonzero;"/><path d="M1519.38,562.117c-22.133,-0 -41.2,-4.134 -57.2,-12.4c-16,-8.267 -28.333,-20 -37,-35.2c-8.666,-15.2 -13,-33.2 -13,-54c0,-20.267 4.2,-38 12.6,-53.2c8.4,-15.2 20,-27.134 34.8,-35.8c14.8,-8.667 31.667,-13 50.6,-13c27.734,-0 49.667,8.8 65.8,26.4c16.134,17.6 24.2,41.6 24.2,72c0,9.866 -6.4,14.8 -19.2,14.8l-120.8,-0c3.734,34.933 23.734,52.4 60,52.4c6.934,-0 14.734,-0.867 23.4,-2.6c8.667,-1.734 16.867,-4.734 24.6,-9c6.934,-4 12.8,-5.267 17.6,-3.8c4.8,1.466 8.2,4.333 10.2,8.6c2,4.266 2.267,9 0.8,14.2c-1.466,5.2 -5.266,9.666 -11.4,13.4c-9.333,5.866 -20.066,10.2 -32.2,13c-12.133,2.8 -23.4,4.2 -33.8,4.2Zm-7.2,-169.6c-14.666,-0 -26.533,4.533 -35.6,13.6c-9.066,9.066 -14.533,21.333 -16.4,36.8l98.4,-0c-1.066,-16.267 -5.533,-28.734 -13.4,-37.4c-7.866,-8.667 -18.866,-13 -33,-13Z" style="fill:#f9fafb;fill-rule:nonzero;"/><path d="M1665.38,561.317c-16.533,-0 -24.8,-8.534 -24.8,-25.6l0,-151.2c0,-16.8 8.134,-25.2 24.4,-25.2c16.267,-0 24.4,8.4 24.4,25.2l0,8c5.867,-10.667 14,-19 24.4,-25c10.4,-6 22.4,-9 36,-9c29.334,-0 48.534,12.8 57.6,38.4c6.134,-12 14.934,-21.4 26.4,-28.2c11.467,-6.8 24.534,-10.2 39.2,-10.2c44,-0 66,26.8 66,80.4l0,96.8c0,17.066 -8.4,25.6 -25.2,25.6c-16.533,-0 -24.8,-8.534 -24.8,-25.6l0,-94.8c0,-14.934 -2.466,-25.867 -7.4,-32.8c-4.933,-6.934 -13.266,-10.4 -25,-10.4c-13.066,-0 -23.333,4.6 -30.8,13.8c-7.466,9.2 -11.2,21.933 -11.2,38.2l0,86c0,17.066 -8.266,25.6 -24.8,25.6c-16.8,-0 -25.2,-8.534 -25.2,-25.6l0,-94.8c0,-14.934 -2.466,-25.867 -7.4,-32.8c-4.933,-6.934 -13.133,-10.4 -24.6,-10.4c-13.066,-0 -23.333,4.6 -30.8,13.8c-7.466,9.2 -11.2,21.933 -11.2,38.2l0,86c0,17.066 -8.4,25.6 -25.2,25.6Z" style="fill:#f9fafb;fill-rule:nonzero;"/><path d="M2086.98,562.117c-22.133,-0 -41.2,-4.134 -57.2,-12.4c-16,-8.267 -28.333,-20 -37,-35.2c-8.666,-15.2 -13,-33.2 -13,-54c0,-20.267 4.2,-38 12.6,-53.2c8.4,-15.2 20,-27.134 34.8,-35.8c14.8,-8.667 31.667,-13 50.6,-13c27.734,-0 49.667,8.8 65.8,26.4c16.134,17.6 24.2,41.6 24.2,72c0,9.866 -6.4,14.8 -19.2,14.8l-120.8,-0c3.734,34.933 23.734,52.4 60,52.4c6.934,-0 14.734,-0.867 23.4,-2.6c8.667,-1.734 16.867,-4.734 24.6,-9c6.934,-4 12.8,-5.267 17.6,-3.8c4.8,1.466 8.2,4.333 10.2,8.6c2,4.266 2.267,9 0.8,14.2c-1.466,5.2 -5.266,9.666 -11.4,13.4c-9.333,5.866 -20.066,10.2 -32.2,13c-12.133,2.8 -23.4,4.2 -33.8,4.2Zm-7.2,-169.6c-14.666,-0 -26.533,4.533 -35.6,13.6c-9.066,9.066 -14.533,21.333 -16.4,36.8l98.4,-0c-1.066,-16.267 -5.533,-28.734 -13.4,-37.4c-7.866,-8.667 -18.866,-13 -33,-13Z" style="fill:#f9fafb;fill-rule:nonzero;"/><path d="M2232.18,561.317c-16.533,-0 -24.8,-8.534 -24.8,-25.6l0,-151.2c0,-16.8 8.134,-25.2 24.4,-25.2c16.267,-0 24.4,8.4 24.4,25.2l0,8.4c6.667,-11.2 15.667,-19.734 27,-25.6c11.334,-5.867 24.067,-8.8 38.2,-8.8c46.134,-0 69.2,26.8 69.2,80.4l0,96.8c0,17.066 -8.266,25.6 -24.8,25.6c-16.8,-0 -25.2,-8.534 -25.2,-25.6l0,-94.4c0,-15.2 -2.866,-26.267 -8.6,-33.2c-5.733,-6.934 -14.6,-10.4 -26.6,-10.4c-14.666,-0 -26.333,4.6 -35,13.8c-8.666,9.2 -13,21.4 -13,36.6l0,87.6c0,17.066 -8.4,25.6 -25.2,25.6Z" style="fill:#f9fafb;fill-rule:nonzero;"/><path d="M2530.98,562.117c-51.733,-0 -77.6,-25.6 -77.6,-76.8l0,-85.2l-20.8,-0c-13.333,-0 -20,-6.267 -20,-18.8c0,-12.534 6.667,-18.8 20,-18.8l20.8,-0l0,-36.4c0,-16.8 8.4,-25.2 25.2,-25.2c16.534,-0 24.8,8.4 24.8,25.2l0,36.4l42.4,-0c13.334,-0 20,6.266 20,18.8c0,12.533 -6.666,18.8 -20,18.8l-42.4,-0l0,82.4c0,12.8 2.8,22.4 8.4,28.8c5.6,6.4 14.667,9.6 27.2,9.6c4.534,-0 8.534,-0.4 12,-1.2c3.467,-0.8 6.534,-1.334 9.2,-1.6c3.2,-0.267 5.867,0.733 8,3c2.134,2.266 3.2,6.866 3.2,13.8c0,5.333 -0.866,10.066 -2.6,14.2c-1.733,4.133 -4.866,7 -9.4,8.6c-3.466,1.066 -8,2.066 -13.6,3c-5.6,0.933 -10.533,1.4 -14.8,1.4Z" style="fill:#f9fafb;fill-rule:nonzero;"/><path d="M2659.38,562.117c-14.133,-0 -26.733,-2.734 -37.8,-8.2c-11.066,-5.467 -19.733,-12.867 -26,-22.2c-6.266,-9.334 -9.4,-19.867 -9.4,-31.6c0,-14.4 3.734,-25.8 11.2,-34.2c7.467,-8.4 19.6,-14.467 36.4,-18.2c16.8,-3.734 39.334,-5.6 67.6,-5.6l14,-0l0,-8.4c0,-13.334 -2.933,-22.934 -8.8,-28.8c-5.866,-5.867 -15.733,-8.8 -29.6,-8.8c-7.733,-0 -16.066,0.933 -25,2.8c-8.933,1.866 -18.333,5.066 -28.2,9.6c-6.4,2.933 -11.733,3.266 -16,1c-4.266,-2.267 -7.133,-5.867 -8.6,-10.8c-1.466,-4.934 -1.2,-9.934 0.8,-15c2,-5.067 6.067,-8.8 12.2,-11.2c12.267,-5.067 24.067,-8.667 35.4,-10.8c11.334,-2.134 21.667,-3.2 31,-3.2c28.534,-0 49.734,6.6 63.6,19.8c13.867,13.2 20.8,33.666 20.8,61.4l0,96c0,17.066 -7.733,25.6 -23.2,25.6c-15.733,-0 -23.6,-8.534 -23.6,-25.6l0,-8.8c-4.533,10.933 -11.733,19.533 -21.6,25.8c-9.866,6.266 -21.6,9.4 -35.2,9.4Zm10.4,-34.4c13.067,-0 23.934,-4.534 32.6,-13.6c8.667,-9.067 13,-20.534 13,-34.4l0,-8.8l-13.6,-0c-25.066,-0 -42.466,1.933 -52.2,5.8c-9.733,3.866 -14.6,10.866 -14.6,21c0,8.8 3.067,16 9.2,21.6c6.134,5.6 14.667,8.4 25.6,8.4Z" style="fill:#f9fafb;fill-rule:nonzero;"/><path d="M2839.38,561.317c-17.066,-0 -25.6,-8.534 -25.6,-25.6l0,-151.2c0,-16.8 8.134,-25.2 24.4,-25.2c16.267,-0 24.4,8.4 24.4,25.2l0,12.4c9.6,-22.934 30.134,-35.734 61.6,-38.4c11.467,-1.334 17.867,5.2 19.2,19.6c1.334,14.133 -5.6,22 -20.8,23.6l-8.8,0.8c-32.8,3.2 -49.2,20 -49.2,50.4l0,82.8c0,17.066 -8.4,25.6 -25.2,25.6Z" style="fill:#f9fafb;fill-rule:nonzero;"/><path d="M3032.18,633.317c-9.066,-0 -15.333,-3.334 -18.8,-10c-3.466,-6.667 -3.333,-14.267 0.4,-22.8l22.8,-50.4l-68.4,-157.6c-3.733,-8.8 -3.733,-16.534 0,-23.2c3.734,-6.667 11.067,-10 22,-10c6.134,-0 11.067,1.4 14.8,4.2c3.734,2.8 7.067,8.066 10,15.8l48,120l49.2,-120.4c2.934,-7.467 6.4,-12.6 10.4,-15.4c4,-2.8 9.334,-4.2 16,-4.2c8.534,-0 14.534,3.333 18,10c3.467,6.666 3.334,14.266 -0.4,22.8l-97.2,222c-3.466,7.466 -7.2,12.533 -11.2,15.2c-4,2.666 -9.2,4 -15.6,4Z" style="fill:#f9fafb;fill-rule:nonzero;"/></g><circle cx="549.248" cy="416.667" r="375" style="fill:#f9fafb;"/><path d="M549.248,416.667l145.833,252.59l145.834,-252.59l-145.834,-252.591l-291.666,-0l-145.834,252.591" style="fill:#fbcfe8;stroke:#e5e7eb;stroke-width:66.67px;"/><path d="M549.248,416.667l145.833,-252.591l-291.666,-0l-145.834,252.591l145.834,252.59l291.666,0" style="fill:none;stroke:#111827;stroke-width:66.67px;"/></svg>